:SAMPLES-PER-SECOND 30
:FULLY-SPECIFIED
:DEGREES
18
root  -1.23437 37.9243 6.56385 178.892 27.574 175.819
RightUpLeg  -17.8117 -5.66562 -21.6503
RightLeg  28.464 -12.4723 -7.45582
RightFoot  -3.81829 -0.877274 13.0709
RightToes  -1.74624e-010 0 -3.6325e-017
Spine  8.64046 0.548517 -9.1249
Spine1  24.8315 -0.111257 -0.487763
HEad  -14.1759 27.286 -9.71892
LeftShoulder1  1.30595 -3.16811 -12.5081
LeftArm  5.85667 -1.70561 -54.5046
LeftForeArm  76.2899 -79.1814 -92.1034
LeftHand  -2.536 -3.03355 34.2652
RightShoulder  0.898301 1.26069 11.7889
RightArm  5.02328 -14.7232 59.2304
RightForeArm  151.541 63.5542 158.309
RightHand  -1.19813 5.12457 -13.4661
LeftUpLeg  -9.79331 -7.10678 8.8144
LeftLeg  27.4709 0.782422 0.782297
LeftFoot  -13.8451 -0.263744 -16.1564
LeftToes  3.7286e-011 -1.5702e-010 -9.70233e-012
19
root  -0.163914 38.3004 6.92369 -179.966 26.0789 176.569
RightUpLeg  -16.8949 -3.9389 -21.6058
RightLeg  21.8407 -13.5832 -6.12782
RightFoot  3.75665 -1.55752 11.7719
RightToes  -1.74624e-010 0 -3.6325e-017
Spine  9.46506 0.432708 -7.86999
Spine1  22.9607 -0.105652 -0.556301
HEad  -13.9603 27.3075 -9.9169
LeftShoulder1  1.26711 -2.84104 -12.942
LeftArm  4.51612 0.335596 -53.0799
LeftForeArm  91.4503 -78.7168 -107.066
LeftHand  -2.53352 -3.06922 34.0959
RightShoulder  0.901882 1.35987 11.4429
RightArm  4.27278 -15.0799 58.5794
RightForeArm  151.607 62.8551 158.924
RightHand  -1.13648 4.85174 -13.1157
LeftUpLeg  -10.3217 -9.86539 10.888
LeftLeg  25.7222 3.37301 2.11097
LeftFoot  -8.65611 0.483046 -18.3179
LeftToes  3.7286e-011 -1.5702e-010 -9.70233e-012
20
root  0.952161 38.4742 7.32941 -178.781 24.0888 177.017
RightUpLeg  -16.1299 -3.17313 -21.3304
RightLeg  17.0879 -12.9607 -4.8008
RightFoot  10.2038 -2.61734 14.0257
RightToes  -1.74624e-010 0 -3.6325e-017
Spine  10.4438 0.35009 -6.34485
Spine1  21.1796 -0.00459078 -0.728991
HEad  -14.4957 26.7864 -10.2084
LeftShoulder1  1.27059 -2.71923 -13.4313
LeftArm  3.57166 3.01658 -51.5743
LeftForeArm  103.043 -77.6124 -119.442
LeftHand  -2.58108 -3.07767 34.664
RightShoulder  0.870227 1.34105 10.7886
RightArm  3.01149 -15.0419 58.0801
RightForeArm  151.865 61.9515 159.692
RightHand  -1.04166 4.48155 -12.4854
LeftUpLeg  -12.6901 -10.4654 12.5261
LeftLeg  27.0103 7.78674 4.67175
LeftFoot  -3.68645 1.20067 -17.7533
LeftToes  3.7286e-011 -1.5702e-010 -9.70233e-012
21
root  2.03664 38.3384 7.7673 -177.957 21.1467 177.206
RightUpLeg  -15.4309 -4.84996 -20.6389
RightLeg  16.0491 -11.2639 -4.36441
RightFoot  10.1474 -3.47293 18.6747
RightToes  -1.74624e-010 0 -3.6325e-017
Spine  11.7971 0.172425 -4.2744
Spine1  19.7811 -0.0172207 -0.728291
HEad  -15.318 25.5405 -10.4427
LeftShoulder1  1.31786 -2.911 -13.5746
LeftArm  3.52833 5.72089 -50.3573
LeftForeArm  109.694 -76.5071 -126.902
LeftHand  -2.59132 -3.04357 34.9238
RightShoulder  0.765568 0.929505 10.0143
RightArm  1.38612 -14.2996 57.3679
RightForeArm  152.315 60.6878 160.704
RightHand  -0.995406 4.29944 -12.162
LeftUpLeg  -16.6871 -8.41787 13.2011
LeftLeg  31.6804 12.2002 8.38622
LeftFoot  -0.335483 1.31982 -13.5577
LeftToes  3.7286e-011 -1.5702e-010 -9.70233e-012
22
root  2.98264 37.8837 8.27434 -177.853 17.9238 177.396
RightUpLeg  -15.7236 -6.09302 -19.9857
RightLeg  19.9541 -10.8072 -4.54869
RightFoot  3.79568 -2.97974 22.316
RightToes  -1.74624e-010 0 -3.6325e-017
Spine  13.7221 -0.0287903 -1.70985
Spine1  19.1265 -0.148895 -0.165102
HEad  -16.8681 23.7571 -11.2751
LeftShoulder1  1.4178 -3.42553 -13.4849
LeftArm  4.06121 8.29897 -49.9186
LeftForeArm  112.375 -76.1437 -129.065
LeftHand  -2.5791 -3.06993 34.6689
RightShoulder  0.609352 0.104924 9.61031
RightArm  -0.431003 -11.9328 55.785
RightForeArm  152.203 59.5548 161.51
RightHand  -1.0436 4.40912 -12.5926
LeftUpLeg  -21.0668 -6.40068 12.834
LeftLeg  37.9704 12.3559 10.4353
LeftFoot  -0.76232 0.965724 -10.3313
LeftToes  3.7286e-011 -1.5702e-010 -9.70233e-012
23
root  3.79618 37.2735 8.84834 -178.278 15.8881 177.464
RightUpLeg  -18.0105 -7.846 -18.8387
RightLeg  26.9635 -9.15601 -5.24625
RightFoot  -3.01814 -1.7133 22.8294
RightToes  -1.74624e-010 0 -3.6325e-017
Spine  15.5335 -0.117019 0.376443
Spine1  19.7654 -0.12812 0.341565
HEad  -19.7435 22.0848 -13.1997
LeftShoulder1  1.55887 -4.05793 -13.6537
LeftArm  4.39647 10.8606 -50.8096
LeftForeArm  109.927 -76.8365 -125.381
LeftHand  -2.60751 -3.14365 34.7415
RightShoulder  0.492571 -0.57362 9.5369
RightArm  -2.53834 -7.71643 53.9279
RightForeArm  151.017 59.6458 161.334
RightHand  -1.15393 4.63516 -13.5861
LeftUpLeg  -24.4428 -5.65317 11.6742
LeftLeg  43.1498 6.50054 6.82006
LeftFoot  -5.00639 0.663385 -11.6951
LeftToes  3.7286e-011 -1.5702e-010 -9.70233e-012
